<?xml version="1.0" encoding="utf-8"?>
<!-- Generated by IcoMoon.io -->
<!DOCTYPE svg PUBLIC "-//W3C//DTD SVG 1.1//EN" "http://www.w3.org/Graphics/SVG/1.1/DTD/svg11.dtd">
<svg version="1.1" xmlns="http://www.w3.org/2000/svg" xmlns:xlink="http://www.w3.org/1999/xlink" width="768" height="768" viewBox="0 0 768 768"><g id="icomoon-ignore">
</g>
<path d="M319.936 271.936c65.248 0 118.464 48.992 126.4 112.064h112.512c-1.056-15.104-3.104-29.92-6.784-44.128l90.912-52.48-64.032-110.912-90.784 52.416c-28.64-28.192-64.32-49.024-104.16-60.064v-104.896h-128.064v104.896c-39.84 11.008-75.552 31.872-104.192 60.032l-90.752-52.384-64.032 110.912 90.848 52.448c-4.96 19.264-7.904 39.296-7.904 60.096s2.912 40.864 7.904 60.096l-90.848 52.48 64.032 110.88 90.72-52.384c28.64 28.192 64.384 49.024 104.224 60.032v104.896h128.064v-225.76c-18.912 11.008-40.608 17.792-64.064 17.792-70.688 0-128-57.312-128-128s57.312-128.032 128-128.032zM735.936 576c0-11.84-2.112-23.104-5.152-33.984l59.424-34.304-31.968-55.36-59.008 34.048c-16.032-16.32-36.48-28-59.296-33.952v-68.448h-63.936v68.448c-22.88 5.888-43.328 17.568-59.392 33.92l-58.912-34.016-31.968 55.36 59.296 34.208c-3.040 10.944-5.184 22.208-5.184 34.080s2.144 23.168 5.184 34.080l-59.296 34.208 31.968 55.36 58.912-34.016c16.064 16.352 36.544 28.032 59.392 33.92v68.448h63.936v-68.48c22.816-5.952 43.264-17.632 59.296-33.952l59.040 34.080 31.968-55.36-59.424-34.304c3.008-10.88 5.12-22.144 5.12-33.984zM607.872 639.936c-35.328 0-63.936-28.64-63.936-63.936s28.64-63.936 63.936-63.936 63.936 28.64 63.936 63.936-28.608 63.936-63.936 63.936z"></path>
</svg>
