<?xml version="1.0" encoding="utf-8"?>
<!-- Generated by IcoMoon.io -->
<!DOCTYPE svg PUBLIC "-//W3C//DTD SVG 1.1//EN" "http://www.w3.org/Graphics/SVG/1.1/DTD/svg11.dtd">
<svg version="1.1" xmlns="http://www.w3.org/2000/svg" xmlns:xlink="http://www.w3.org/1999/xlink" width="576" height="576" viewBox="0 0 576 576"><g id="icomoon-ignore">
</g>
<path d="M438.859 244.914l-0.018 0.008c5.831-16.594 9.159-34.344 9.159-52.922 0-88.367-71.625-160-160-160s-160 71.633-160 160c0 18.578 3.328 36.328 9.156 52.922v-0.008c-62.344 31.711-105.156 96.305-105.156 171.047v95.992c0 17.703 14.344 32.047 32.047 32.047h447.906c17.703 0 32.047-14.344 32.047-32.047v-95.992c0-74.742-42.797-139.336-105.141-171.047zM288 96c52.938 0 96 43.062 96 96s-43.062 96-96 96c-52.938 0-96-43.062-96-96s43.062-96 96-96zM480 480h-384v-64.039c0-51.336 30.469-95.594 74.188-115.961 29.25 31.891 71.125 52 117.812 52s88.562-20.109 117.812-52c43.719 20.367 74.188 64.625 74.188 115.961v64.039z"></path>
</svg>
